<?xml version="1.0" encoding="UTF-8" standalone="no"?>
<!DOCTYPE svg PUBLIC "-//W3C//DTD SVG 1.1//EN"
 "http://www.w3.org/Graphics/SVG/1.1/DTD/svg11.dtd">
<!-- Generated by graphviz version 2.30.1 (20201013.1554)
 -->
<!-- Title: virgasniffer Pages: 1 -->
<svg width="1211pt" height="1218pt"
 viewBox="0.00 0.00 1210.81 1218.00" xmlns="http://www.w3.org/2000/svg" xmlns:xlink="http://www.w3.org/1999/xlink">
<g id="graph0" class="graph" transform="scale(1 1) rotate(0) translate(4 1214)">
<title>virgasniffer</title>
<polygon fill="white" stroke="white" points="-4,5 -4,-1214 1207.81,-1214 1207.81,5 -4,5"/>
<g id="clust4" class="cluster"><title>cluster_1</title>
<polygon fill="wheat" stroke="wheat" stroke-width="3" points="175.072,-618 175.072,-976 419.072,-976 419.072,-618 175.072,-618"/>
<text text-anchor="start" x="183.572" y="-953" font-family="Times,serif" font-weight="bold" font-size="25.00">cloud&#45;base layer</text>
<text text-anchor="start" x="221.572" y="-928" font-family="Times,serif" font-weight="bold" font-size="25.00">processing</text>
</g>
<g id="clust6" class="cluster"><title>cluster_0</title>
<polygon fill="lightblue" stroke="white" stroke-width="3" points="156.072,-984 156.072,-1202 1154.07,-1202 1154.07,-984 156.072,-984"/>
<text text-anchor="start" x="164.572" y="-1175" font-family="Times,serif" font-weight="bold" font-size="30.00">Input dataset</text>
</g>
<g id="clust8" class="cluster"><title>cluster_02</title>
<polygon fill="lightblue" stroke="white" stroke-width="3" points="164.072,-992 164.072,-1097 1146.07,-1097 1146.07,-992 164.072,-992"/>
<text text-anchor="start" x="172.572" y="-1070" font-family="Times,serif" font-weight="bold" font-size="30.00">optional</text>
</g>
<g id="clust10" class="cluster"><title>cluster_2</title>
<polygon fill="wheat" stroke="wheat" stroke-width="3" points="841.072,-260 841.072,-921 1099.07,-921 1099.07,-260 841.072,-260"/>
<text text-anchor="start" x="849.072" y="-321" font-family="Times,serif" font-weight="bold" font-size="25.00">optional</text>
<text text-anchor="start" x="849.072" y="-296" font-family="Times,serif" font-weight="bold" font-size="25.00">virga mask</text>
<text text-anchor="start" x="849.572" y="-271" font-family="Times,serif" font-weight="bold" font-size="25.00">refinement</text>
</g>
<g id="clust14" class="cluster"><title>cluster_9</title>
<polygon fill="lightblue" stroke="white" stroke-width="3" points="31.072,-8 31.072,-434 833.072,-434 833.072,-8 31.072,-8"/>
<text text-anchor="start" x="39.572" y="-20" font-family="Times,serif" font-weight="bold" font-size="30.00">Output dataset</text>
</g>
<g id="clust15" class="cluster"><title>cluster_91</title>
<polygon fill="lightblue" stroke="white" stroke-width="3" points="101.072,-55 101.072,-160 641.072,-160 641.072,-55 101.072,-55"/>
<text text-anchor="start" x="109.572" y="-67" font-family="Times,serif" font-weight="bold" font-size="30.00">characteristics</text>
</g>
<!-- cbhprocess&#45;detail -->
<g id="node1" class="node"><title>cbhprocess&#45;detail</title>
<polygon fill="none" stroke="black" points="411.072,-793.5 211.072,-793.5 211.072,-626.5 411.072,-626.5 411.072,-793.5"/>
<text text-anchor="start" x="223.572" y="-769.5" font-family="Times,serif" font-weight="bold" font-style="italic" font-size="20.00">cbh_processing</text>
<text text-anchor="start" x="223.072" y="-743" font-family="Times,serif" font-size="20.00">0: clean &amp; sort</text>
<text text-anchor="start" x="223.072" y="-717" font-family="Times,serif" font-size="20.00">1: split</text>
<text text-anchor="start" x="223.072" y="-691" font-family="Times,serif" font-size="20.00">2: merge</text>
<text text-anchor="start" x="223.072" y="-665" font-family="Times,serif" font-size="20.00">3: add lcl</text>
<text text-anchor="start" x="223.072" y="-639" font-family="Times,serif" font-size="20.00">4: smooth</text>
</g>
<!-- mclut -->
<g id="node11" class="node"><title>mclut</title>
<polygon fill="none" stroke="blue" points="1086.32,-912.5 849.822,-912.5 849.822,-859.5 1086.32,-859.5 1086.32,-912.5"/>
<text text-anchor="start" x="857.572" y="-891.9" font-family="Times,serif" font-size="22.00">clutter</text>
<text text-anchor="start" x="858.072" y="-869.9" font-family="Times,serif" font-style="italic" font-size="22.00">mask_clutter</text>
<text text-anchor="start" x="1003.07" y="-869.9" font-family="Times,serif" font-size="22.00">=</text>
<text text-anchor="start" x="1022.07" y="-869.9" font-family="Times,serif" font-weight="bold" font-size="22.00">True</text>
</g>
<!-- cbhprocess&#45;detail&#45;&gt;mclut -->
<!-- initial&#45;detection -->
<g id="node3" class="node"><title>initial&#45;detection</title>
<ellipse fill="none" stroke="green" stroke-width="3" cx="390.072" cy="-538" rx="237.382" ry="24.0833"/>
<text text-anchor="start" x="230.572" y="-532" font-family="Times,serif" font-weight="bold" font-size="25.00">precip. &amp; cloud detection</text>
</g>
<!-- cbhprocess&#45;detail&#45;&gt;initial&#45;detection -->
<g id="edge18" class="edge"><title>cbhprocess&#45;detail&#45;&gt;initial&#45;detection</title>
<path fill="none" stroke="black" d="M349.415,-626.49C358.187,-607.614 367.034,-588.575 374.226,-573.099"/>
<polygon fill="black" stroke="black" points="378.126,-574.673 379.374,-562.021 370.508,-571.133 378.126,-574.673"/>
</g>
<!-- layer&#45;rg&#45;map -->
<g id="node2" class="node"><title>layer&#45;rg&#45;map</title>
<ellipse fill="none" stroke="green" stroke-width="3" cx="630.072" cy="-886" rx="202.41" ry="41.9398"/>
<text text-anchor="start" x="494.572" y="-892.5" font-family="Times,serif" font-weight="bold" font-size="25.00">rangegate mapping</text>
<text text-anchor="start" x="503.572" y="-867.5" font-family="Times,serif" font-size="25.00">cloud&#45;base &amp; height</text>
</g>
<!-- layer&#45;rg&#45;map&#45;&gt;cbhprocess&#45;detail -->
<!-- layer&#45;rg&#45;map&#45;&gt;initial&#45;detection -->
<g id="edge26" class="edge"><title>layer&#45;rg&#45;map&#45;&gt;initial&#45;detection</title>
<path fill="none" stroke="black" d="M602.071,-844.632C554.165,-775.567 457.37,-636.021 413.105,-572.207"/>
<polygon fill="black" stroke="black" points="416.509,-569.745 406.219,-562.278 409.607,-574.532 416.509,-569.745"/>
</g>
<!-- virgaflag -->
<g id="node14" class="node"><title>virgaflag</title>
<polygon fill="none" stroke="black" points="824.518,-426 617.007,-426 563.626,-376 771.136,-376 824.518,-426"/>
<text text-anchor="start" x="639.572" y="-408.9" font-family="Times,serif" font-style="italic" font-size="22.00">flag_virga</text>
<text text-anchor="start" x="606.572" y="-380.4" font-family="Times,serif" font-style="italic" font-size="22.00">flag_virga_layer</text>
</g>
<!-- layer&#45;rg&#45;map&#45;&gt;virgaflag -->
<g id="edge27" class="edge"><title>layer&#45;rg&#45;map&#45;&gt;virgaflag</title>
<path fill="none" stroke="black" d="M635.473,-844.236C647.753,-751.567 677.6,-526.311 689.277,-438.19"/>
<polygon fill="black" stroke="black" points="693.45,-438.664 690.863,-426.216 685.123,-437.56 693.45,-438.664"/>
</g>
<!-- cloudflag -->
<g id="node15" class="node"><title>cloudflag</title>
<polygon fill="none" stroke="black" points="562.518,-426 355.007,-426 301.626,-376 509.136,-376 562.518,-426"/>
<text text-anchor="start" x="375.572" y="-408.9" font-family="Times,serif" font-style="italic" font-size="22.00">flag_cloud</text>
<text text-anchor="start" x="342.572" y="-380.4" font-family="Times,serif" font-style="italic" font-size="22.00">flag_cloud_layer</text>
</g>
<!-- layer&#45;rg&#45;map&#45;&gt;cloudflag -->
<g id="edge28" class="edge"><title>layer&#45;rg&#45;map&#45;&gt;cloudflag</title>
<path fill="none" stroke="black" d="M631.909,-843.969C635.749,-750.694 642.872,-528.584 625.072,-500 611.256,-477.814 555.474,-450.805 507.41,-430.764"/>
<polygon fill="black" stroke="black" points="508.72,-426.762 496.024,-426.084 505.527,-434.531 508.72,-426.762"/>
</g>
<!-- mvel -->
<g id="node10" class="node"><title>mvel</title>
<polygon fill="none" stroke="blue" points="1065.07,-736.5 871.072,-736.5 871.072,-683.5 1065.07,-683.5 1065.07,-736.5"/>
<text text-anchor="start" x="879.072" y="-715.9" font-family="Times,serif" font-size="22.00">doppler velocity</text>
<text text-anchor="start" x="879.572" y="-693.9" font-family="Times,serif" font-style="italic" font-size="22.00">mask_vel</text>
<text text-anchor="start" x="981.572" y="-693.9" font-family="Times,serif" font-size="22.00">=</text>
<text text-anchor="start" x="1000.57" y="-693.9" font-family="Times,serif" font-weight="bold" font-size="22.00">True</text>
</g>
<!-- initial&#45;detection&#45;&gt;mvel -->
<!-- mrg -->
<g id="node12" class="node"><title>mrg</title>
<polygon fill="none" stroke="blue" points="1055.32,-449.5 860.822,-449.5 860.822,-352.5 1055.32,-352.5 1055.32,-449.5"/>
<text text-anchor="start" x="868.572" y="-428.9" font-family="Times,serif" font-size="22.00">count valid data</text>
<text text-anchor="start" x="868.572" y="-406.9" font-family="Times,serif" font-style="italic" font-size="22.00">minimum_</text>
<text text-anchor="start" x="868.572" y="-384.9" font-family="Times,serif" font-style="italic" font-size="22.00">rangegate_</text>
<text text-anchor="start" x="898.072" y="-362.9" font-family="Times,serif" font-style="italic" font-size="22.00">number</text>
<text text-anchor="start" x="986.072" y="-362.9" font-family="Times,serif" font-size="22.00">&gt;0</text>
</g>
<!-- initial&#45;detection&#45;&gt;mrg -->
<!-- CTH -->
<g id="node16" class="node"><title>CTH</title>
<polygon fill="none" stroke="black" points="300.518,-252 93.0075,-252 39.6258,-202 247.136,-202 300.518,-252"/>
<text text-anchor="middle" x="170.072" y="-221.4" font-family="Times,serif" font-size="22.00">cloud_top_height</text>
</g>
<!-- initial&#45;detection&#45;&gt;CTH -->
<g id="edge21" class="edge"><title>initial&#45;detection&#45;&gt;CTH</title>
<path fill="none" stroke="black" d="M243.615,-518.974C159.239,-505.246 64.8951,-483.005 39.072,-450 -12.9631,-383.493 -13.0755,-326.419 39.072,-260 43.9489,-253.788 55.3533,-248.628 69.5062,-244.397"/>
<polygon fill="black" stroke="black" points="70.8789,-248.377 81.3735,-241.2 68.694,-240.266 70.8789,-248.377"/>
</g>
<!-- CBH -->
<g id="node17" class="node"><title>CBH</title>
<polygon fill="none" stroke="black" points="300.518,-426 93.0075,-426 39.6258,-376 247.136,-376 300.518,-426"/>
<text text-anchor="middle" x="170.072" y="-395.4" font-family="Times,serif" font-size="22.00">cloud_base_height</text>
</g>
<!-- initial&#45;detection&#45;&gt;CBH -->
<g id="edge22" class="edge"><title>initial&#45;detection&#45;&gt;CBH</title>
<path fill="none" stroke="black" d="M353.332,-514.099C316.963,-491.656 261.006,-457.306 220.491,-432.546"/>
<polygon fill="black" stroke="black" points="222.454,-428.824 210.024,-426.154 218.076,-435.993 222.454,-428.824"/>
</g>
<!-- initial&#45;detection&#45;&gt;virgaflag -->
<g id="edge23" class="edge"><title>initial&#45;detection&#45;&gt;virgaflag</title>
<path fill="none" stroke="black" d="M440.955,-514.404C492.506,-491.511 572.456,-456.007 628.679,-431.04"/>
<polygon fill="black" stroke="black" points="630.682,-434.746 639.945,-426.037 627.273,-427.069 630.682,-434.746"/>
</g>
<!-- initial&#45;detection&#45;&gt;cloudflag -->
<g id="edge24" class="edge"><title>initial&#45;detection&#45;&gt;cloudflag</title>
<path fill="none" stroke="black" d="M397.292,-513.793C403.793,-492.897 413.448,-461.863 420.937,-437.791"/>
<polygon fill="black" stroke="black" points="424.967,-438.975 424.522,-426.269 416.946,-436.48 424.967,-438.975"/>
</g>
<!-- initial&#45;detection&#45;&gt;layer&#45;rg&#45;map -->
<g id="edge25" class="edge"><title>initial&#45;detection&#45;&gt;layer&#45;rg&#45;map</title>
<path fill="none" stroke="black" d="M406.619,-562.278C445.444,-617.661 543.05,-758.304 595.486,-834.347"/>
<polygon fill="black" stroke="black" points="592.306,-837.135 602.574,-844.632 599.223,-832.368 592.306,-837.135"/>
</g>
<!-- smooth -->
<g id="node4" class="node"><title>smooth</title>
<ellipse fill="none" stroke="blue" cx="262.072" cy="-886" rx="68.9457" ry="22.7556"/>
<text text-anchor="middle" x="262.072" y="-880.4" font-family="Times,serif" font-size="22.00">smooth</text>
</g>
<!-- smooth&#45;&gt;cbhprocess&#45;detail -->
<g id="edge1" class="edge"><title>smooth&#45;&gt;cbhprocess&#45;detail</title>
<path fill="none" stroke="black" d="M268.179,-863.315C272.398,-848.333 278.331,-827.263 284.443,-805.561"/>
<polygon fill="black" stroke="black" points="288.536,-806.519 287.746,-793.83 280.451,-804.242 288.536,-806.519"/>
</g>
<!-- ze -->
<g id="node5" class="node"><title>ze</title>
<polygon fill="none" stroke="black" points="980.617,-1155 725.226,-1155 659.527,-1105 914.918,-1105 980.617,-1155"/>
<text text-anchor="start" x="760.572" y="-1135.9" font-family="Times,serif" font-size="22.00">reflectivity</text>
<text text-anchor="start" x="773.572" y="-1113.9" font-family="Times,serif" font-style="italic" font-size="22.00">Ze</text>
<text text-anchor="start" x="801.572" y="-1113.9" font-family="Times,serif" font-size="22.00"> [dBz]</text>
</g>
<!-- vel -->
<g id="node7" class="node"><title>vel</title>
<polygon fill="none" stroke="black" points="815.617,-1050 560.226,-1050 494.527,-1000 749.918,-1000 815.617,-1050"/>
<text text-anchor="start" x="571.572" y="-1030.5" font-family="Times,serif" font-size="20.00">doppler velocity</text>
<text text-anchor="start" x="603.072" y="-1010.5" font-family="Times,serif" font-style="italic" font-size="20.00">vel</text>
<text text-anchor="start" x="634.072" y="-1010.5" font-family="Times,serif" font-size="20.00"> [ms&#45;1]</text>
</g>
<!-- ze&#45;&gt;vel -->
<!-- ze&#45;&gt;initial&#45;detection -->
<g id="edge16" class="edge"><title>ze&#45;&gt;initial&#45;detection</title>
<path fill="none" stroke="black" stroke-width="3" d="M675.466,-1117.16C616.459,-1112.72 547.535,-1108.01 485.072,-1105 476.163,-1104.57 170.3,-1103.39 164.072,-1097 100.154,-1031.47 -15.8741,-883.016 175.072,-618 193.881,-591.894 222.279,-574.399 252.324,-562.679"/>
<polygon fill="black" stroke="black" points="254.064,-566.515 263.904,-558.464 251.191,-558.622 254.064,-566.515"/>
</g>
<!-- ze&#45;&gt;mclut -->
<g id="edge35" class="edge"><title>ze&#45;&gt;mclut</title>
<path fill="none" stroke="black" stroke-width="3" d="M941.193,-1124.87C1028.06,-1120.62 1132.13,-1112.38 1146.07,-1097 1162.94,-1078.4 1158.89,-1005.59 1146.07,-984 1128.15,-953.819 1097.17,-932.432 1066.03,-917.567"/>
<polygon fill="black" stroke="black" points="1067.7,-913.71 1055.03,-912.577 1064.23,-921.36 1067.7,-913.71"/>
</g>
<!-- mrain -->
<g id="node13" class="node"><title>mrain</title>
<polygon fill="none" stroke="blue" points="1091.07,-575.5 849.072,-575.5 849.072,-500.5 1091.07,-500.5 1091.07,-575.5"/>
<text text-anchor="start" x="857.072" y="-554.9" font-family="Times,serif" font-size="22.00">rain at surface</text>
<text text-anchor="start" x="857.072" y="-532.9" font-family="Times,serif" font-style="italic" font-size="22.00">mask_rain</text>
<text text-anchor="start" x="972.072" y="-532.9" font-family="Times,serif" font-size="22.00">=</text>
<text text-anchor="start" x="991.072" y="-532.9" font-family="Times,serif" font-weight="bold" font-size="22.00">True</text>
<text text-anchor="start" x="857.572" y="-510.9" font-family="Times,serif" font-style="italic" font-size="22.00">mask_rain_ze</text>
<text text-anchor="start" x="1007.57" y="-510.9" font-family="Times,serif" font-size="22.00">=</text>
<text text-anchor="start" x="1026.57" y="-510.9" font-family="Times,serif" font-weight="bold" font-size="22.00">True</text>
</g>
<!-- ze&#45;&gt;mrain -->
<g id="edge36" class="edge"><title>ze&#45;&gt;mrain</title>
<path fill="none" stroke="black" stroke-width="3" d="M941.601,-1125.1C1030.42,-1120.97 1137.76,-1112.75 1152.07,-1097 1228.66,-1012.68 1227.2,-846.975 1080.07,-618 1071.56,-604.759 1059.99,-593.042 1047.52,-582.956"/>
<polygon fill="black" stroke="black" points="1049.94,-579.517 1037.86,-575.563 1044.84,-586.189 1049.94,-579.517"/>
</g>
<!-- CBH0 -->
<g id="node6" class="node"><title>CBH0</title>
<polygon fill="none" stroke="black" points="485.617,-1155 230.226,-1155 164.527,-1105 419.918,-1105 485.617,-1155"/>
<text text-anchor="start" x="226.572" y="-1135.9" font-family="Times,serif" font-size="22.00">cloud&#45;base height</text>
<text text-anchor="start" x="200.072" y="-1113.9" font-family="Times,serif" font-style="italic" font-size="22.00">cloud_base_height</text>
<text text-anchor="start" x="405.072" y="-1113.9" font-family="Times,serif" font-size="22.00"> [m]</text>
</g>
<!-- CBH0&#45;&gt;smooth -->
<g id="edge6" class="edge"><title>CBH0:w&#45;&gt;smooth</title>
<path fill="none" stroke="black" stroke-width="3" d="M196.072,-1130C114.082,-1130 153.35,-1009.7 164.072,-984 175.982,-955.453 200.835,-931.012 222.532,-913.805"/>
<polygon fill="black" stroke="black" points="225.223,-917.034 232.22,-906.419 220.131,-910.354 225.223,-917.034"/>
</g>
<!-- vel&#45;&gt;layer&#45;rg&#45;map -->
<!-- vel&#45;&gt;mvel -->
<g id="edge33" class="edge"><title>vel&#45;&gt;mvel</title>
<path fill="none" stroke="black" d="M739.123,-999.928C764.594,-993.604 792.79,-987.562 819.072,-984 833.667,-982.022 1073.82,-986.571 1084.07,-976 1094.29,-965.474 1089.22,-857.734 1084.07,-844 1069.31,-804.606 1037.01,-769.208 1010.23,-744.854"/>
<polygon fill="black" stroke="black" points="1012.8,-741.517 1001.03,-736.711 1007.23,-747.808 1012.8,-741.517"/>
</g>
<!-- vel&#45;&gt;mclut -->
<g id="edge34" class="edge"><title>vel&#45;&gt;mclut</title>
<path fill="none" stroke="black" d="M754.368,-1002.95C780.232,-995.893 807.675,-986.958 832.072,-976 865.363,-961.048 899.727,-938.488 925.584,-919.823"/>
<polygon fill="black" stroke="black" points="928.213,-923.104 935.409,-912.623 923.247,-916.329 928.213,-923.104"/>
</g>
<!-- lcl -->
<g id="node8" class="node"><title>lcl</title>
<polygon fill="none" stroke="black" points="493.617,-1050 238.226,-1050 172.527,-1000 427.918,-1000 493.617,-1050"/>
<text text-anchor="start" x="255.572" y="-1030.5" font-family="Times,serif" font-size="20.00">lift. cond. level</text>
<text text-anchor="start" x="299.072" y="-1010.5" font-family="Times,serif" font-style="italic" font-size="20.00">lcl [m]</text>
</g>
<!-- lcl&#45;&gt;smooth -->
<!-- lcl&#45;&gt;cbhprocess&#45;detail -->
<g id="edge17" class="edge"><title>lcl&#45;&gt;cbhprocess&#45;detail</title>
<path fill="none" stroke="black" d="M333.162,-999.795C333.117,-965.198 332.39,-899.635 328.072,-844 327.11,-831.601 325.809,-818.584 324.352,-805.748"/>
<polygon fill="black" stroke="black" points="328.487,-804.95 322.914,-793.523 320.145,-805.931 328.487,-804.95"/>
</g>
<!-- flag_surface_rain -->
<g id="node9" class="node"><title>flag_surface_rain</title>
<polygon fill="none" stroke="black" points="1137.62,-1050 882.226,-1050 816.527,-1000 1071.92,-1000 1137.62,-1050"/>
<text text-anchor="start" x="896.072" y="-1030.5" font-family="Times,serif" font-size="20.00">rain at surface?</text>
<text text-anchor="start" x="855.072" y="-1010.5" font-family="Times,serif" font-style="italic" font-size="20.00">flag_surface_rain</text>
<text text-anchor="start" x="1032.07" y="-1010.5" font-family="Times,serif" font-size="20.00"> [bool]</text>
</g>
<!-- flag_surface_rain&#45;&gt;layer&#45;rg&#45;map -->
<!-- flag_surface_rain&#45;&gt;mrain -->
<g id="edge37" class="edge"><title>flag_surface_rain&#45;&gt;mrain</title>
<path fill="none" stroke="black" d="M1061.61,-999.927C1071.66,-993.689 1080.62,-985.849 1087.07,-976 1119.21,-926.917 1089.92,-902.598 1087.07,-844 1082.18,-743.2 1112.31,-707.183 1065.07,-618 1058.33,-605.264 1048.58,-593.771 1037.87,-583.747"/>
<polygon fill="black" stroke="black" points="1040.47,-580.447 1028.69,-575.677 1034.93,-586.755 1040.47,-580.447"/>
</g>
<!-- mvel&#45;&gt;mrain -->
<!-- mvel&#45;&gt;virgaflag -->
<g id="edge38" class="edge"><title>mvel&#45;&gt;virgaflag</title>
<path fill="none" stroke="black" d="M936.408,-674.09C912.161,-647.311 877.917,-609.398 848.072,-576 804.583,-527.334 754.554,-470.683 723.621,-435.578"/>
<polygon fill="black" stroke="black" points="933.375,-676.998 944.545,-683.071 939.601,-671.358 933.375,-676.998"/>
<polygon fill="black" stroke="black" points="726.508,-432.501 715.424,-426.273 720.205,-438.054 726.508,-432.501"/>
</g>
<!-- mclut&#45;&gt;mvel -->
<!-- mclut&#45;&gt;virgaflag -->
<g id="edge39" class="edge"><title>mclut&#45;&gt;virgaflag</title>
<path fill="none" stroke="black" d="M924.519,-851.243C906.03,-835.335 885.283,-815.207 870.072,-794 785.197,-675.666 727.426,-509.87 704.775,-437.8"/>
<polygon fill="black" stroke="black" points="922.052,-854.656 933.941,-859.161 927.456,-848.225 922.052,-854.656"/>
<polygon fill="black" stroke="black" points="708.762,-436.478 701.197,-426.26 700.739,-438.965 708.762,-436.478"/>
</g>
<!-- mrg&#45;&gt;virgaflag -->
<g id="edge40" class="edge"><title>mrg&#45;&gt;virgaflag</title>
<path fill="none" stroke="black" d="M848.322,-401C835.61,-401 822.897,-401 810.185,-401"/>
<polygon fill="black" stroke="black" points="848.51,-405.2 860.51,-401 848.51,-396.8 848.51,-405.2"/>
<polygon fill="black" stroke="black" points="809.97,-396.8 797.97,-401 809.97,-405.2 809.97,-396.8"/>
</g>
<!-- mrain&#45;&gt;mrg -->
<!-- mrain&#45;&gt;virgaflag -->
<g id="edge41" class="edge"><title>mrain&#45;&gt;virgaflag</title>
<path fill="none" stroke="black" d="M884.443,-495.116C842.322,-474.514 792.558,-450.173 754.475,-431.545"/>
<polygon fill="black" stroke="black" points="882.757,-498.967 895.382,-500.467 886.448,-491.422 882.757,-498.967"/>
<polygon fill="black" stroke="black" points="756.182,-427.705 743.557,-426.205 752.491,-435.25 756.182,-427.705"/>
</g>
<!-- mrain&#45;&gt;virgaflag -->
<g id="edge42" class="edge"><title>mrain&#45;&gt;virgaflag</title>
<path fill="none" stroke="black" d="M885.143,-495.116C843.107,-474.514 793.32,-450.173 755.108,-431.545"/>
<polygon fill="black" stroke="black" points="883.434,-498.956 896.057,-500.467 887.131,-491.413 883.434,-498.956"/>
<polygon fill="black" stroke="black" points="756.776,-427.686 744.148,-426.205 753.096,-435.237 756.776,-427.686"/>
</g>
<!-- virgaflag&#45;&gt;CTH -->
<!-- virgadepth -->
<g id="node18" class="node"><title>virgadepth</title>
<polygon fill="none" stroke="black" points="632.518,-152 425.007,-152 371.626,-102 579.136,-102 632.518,-152"/>
<text text-anchor="start" x="441.072" y="-134.5" font-family="Times,serif" font-style="italic" font-size="20.00">virga_depth</text>
<text text-anchor="start" x="416.572" y="-108" font-family="Times,serif" font-style="italic" font-size="20.00">virga_top/base...</text>
</g>
<!-- virgaflag&#45;&gt;virgadepth -->
<g id="edge29" class="edge"><title>virgaflag&#45;&gt;virgadepth</title>
<path fill="none" stroke="black" d="M677.033,-375.862C642.804,-327.37 565.603,-218.003 526.199,-162.179"/>
<polygon fill="black" stroke="black" points="529.424,-159.466 519.073,-152.084 522.561,-164.31 529.424,-159.466"/>
</g>
<!-- CTH&#45;&gt;initial&#45;detection -->
<g id="edge19" class="edge"><title>CTH&#45;&gt;initial&#45;detection</title>
<path fill="none" stroke="black" d="M81.7274,-241.825C63.4339,-246.509 47.9221,-252.507 42.072,-260 29.08,-276.64 29.08,-433.36 42.072,-450 66.5007,-481.288 152.895,-502.989 233.483,-516.892"/>
<polygon fill="black" stroke="black" points="232.792,-521.035 245.323,-518.887 234.188,-512.751 232.792,-521.035"/>
</g>
<!-- clouddepth -->
<g id="node19" class="node"><title>clouddepth</title>
<polygon fill="none" stroke="black" points="370.518,-152 163.007,-152 109.626,-102 317.136,-102 370.518,-152"/>
<text text-anchor="start" x="177.572" y="-124.5" font-family="Times,serif" font-style="italic" font-size="20.00">cloud_depth</text>
</g>
<!-- CTH&#45;&gt;clouddepth -->
<g id="edge31" class="edge"><title>CTH&#45;&gt;clouddepth</title>
<path fill="none" stroke="black" d="M187.375,-201.775C195.873,-189.878 206.259,-175.338 215.558,-162.32"/>
<polygon fill="black" stroke="black" points="219.168,-164.492 222.725,-152.286 212.332,-159.609 219.168,-164.492"/>
</g>
<!-- CBH&#45;&gt;CTH -->
<!-- CBH&#45;&gt;initial&#45;detection -->
<g id="edge20" class="edge"><title>CBH&#45;&gt;initial&#45;detection</title>
<path fill="none" stroke="black" d="M209.433,-426.154C246.71,-449.028 302.745,-483.413 342.507,-507.813"/>
<polygon fill="black" stroke="black" points="340.327,-511.403 352.752,-514.099 344.721,-504.243 340.327,-511.403"/>
</g>
<!-- CBH&#45;&gt;virgadepth -->
<g id="edge30" class="edge"><title>CBH&#45;&gt;virgadepth</title>
<path fill="none" stroke="black" d="M190.218,-375.914C215.268,-346.717 260.111,-296.852 304.072,-260 350.527,-221.058 408.775,-183.393 450.036,-158.333"/>
<polygon fill="black" stroke="black" points="452.296,-161.875 460.406,-152.083 447.96,-154.68 452.296,-161.875"/>
</g>
<!-- CBH&#45;&gt;clouddepth -->
<g id="edge32" class="edge"><title>CBH&#45;&gt;clouddepth</title>
<path fill="none" stroke="black" d="M201.113,-375.896C232.423,-349.421 278.805,-303.731 298.072,-252 305.828,-231.175 305.323,-223.006 298.072,-202 292.995,-187.294 283.659,-173.28 273.939,-161.482"/>
<polygon fill="black" stroke="black" points="276.825,-158.403 265.768,-152.127 270.498,-163.928 276.825,-158.403"/>
</g>
</g>
</svg>
